<?xml version="1.0" ?><svg data-name="Layer 1" id="Layer_1" viewBox="0 0 32 32" xmlns="http://www.w3.org/2000/svg"><title/><path d="M26.93,14.07a8,8,0,0,0-4-1.07,8,8,0,0,0-1.33-9.73,1,1,0,1,0-1.39,1.44,6,6,0,0,1-.42,8.93l-.07,0a4.94,4.94,0,0,0-7.42,0l-.07,0A5.93,5.93,0,0,1,10,9a6,6,0,0,1,1.81-4.28,1,1,0,1,0-1.39-1.44A8,8,0,0,0,9.08,13a8,8,0,0,0-4,1.07,7.88,7.88,0,0,0-3.74,5,1,1,0,0,0,1.94.49,5.89,5.89,0,0,1,2.8-3.71,6,6,0,0,1,5.14-.41l.07.05A4.93,4.93,0,0,0,11,17a5,5,0,0,0,4,4.9h0a6,6,0,0,1-7.53,4.87,1,1,0,1,0-.55,1.92A8,8,0,0,0,16,25a7.93,7.93,0,0,0,9.09,3.7,1,1,0,0,0-.55-1.92A6,6,0,0,1,17,21.9,5,5,0,0,0,21,17a4.93,4.93,0,0,0-.27-1.56l.07,0a6,6,0,0,1,5.14.41,5.9,5.9,0,0,1,2.8,3.71A1,1,0,0,0,30.67,19,7.88,7.88,0,0,0,26.93,14.07ZM16,20a3,3,0,1,1,3-3A3,3,0,0,1,16,20Z"/></svg>